<mxfile host="65bd71144e">
    <diagram id="pKuTH1ICYwYPupLKQnVR" name="built">
        <mxGraphModel dx="1033" dy="680" grid="1" gridSize="10" guides="1" tooltips="1" connect="1" arrows="1" fold="1" page="0" pageScale="1" pageWidth="850" pageHeight="1100" background="none" math="0" shadow="0">
            <root>
                <mxCell id="0"/>
                <mxCell id="1" parent="0"/>
                <mxCell id="XTuCKv0g9gNxLLCQ7Ozg-16" value="" style="rounded=1;whiteSpace=wrap;html=1;dashed=0;sketch=0;strokeColor=light-dark(#FFFFFF,#F0F0F0);align=center;verticalAlign=top;fontFamily=Helvetica;fontSize=12;fontColor=#232F3E;fontStyle=0;fillColor=none;arcSize=11;" parent="1" vertex="1">
                    <mxGeometry x="425" y="50" width="185" height="290" as="geometry"/>
                </mxCell>
                <mxCell id="XTuCKv0g9gNxLLCQ7Ozg-3" style="edgeStyle=orthogonalEdgeStyle;html=1;strokeWidth=2;" parent="1" source="XTuCKv0g9gNxLLCQ7Ozg-1" edge="1">
                    <mxGeometry relative="1" as="geometry">
                        <mxPoint x="300" y="249" as="targetPoint"/>
                    </mxGeometry>
                </mxCell>
                <mxCell id="XTuCKv0g9gNxLLCQ7Ozg-1" value="&lt;font face=&quot;Itau Display&quot;&gt;Eventbrige Rule&lt;/font&gt;" style="sketch=0;points=[[0,0,0],[0.25,0,0],[0.5,0,0],[0.75,0,0],[1,0,0],[0,1,0],[0.25,1,0],[0.5,1,0],[0.75,1,0],[1,1,0],[0,0.25,0],[0,0.5,0],[0,0.75,0],[1,0.25,0],[1,0.5,0],[1,0.75,0]];outlineConnect=0;fontColor=#232F3E;fillColor=#E7157B;strokeColor=#ffffff;dashed=0;verticalLabelPosition=bottom;verticalAlign=top;align=center;html=1;fontSize=12;fontStyle=0;aspect=fixed;shape=mxgraph.aws4.resourceIcon;resIcon=mxgraph.aws4.eventbridge;" parent="1" vertex="1">
                    <mxGeometry x="140" y="210" width="78" height="78" as="geometry"/>
                </mxCell>
                <mxCell id="XTuCKv0g9gNxLLCQ7Ozg-8" style="edgeStyle=orthogonalEdgeStyle;shape=connector;rounded=1;html=1;entryX=1;entryY=0.75;entryDx=0;entryDy=0;strokeColor=default;strokeWidth=2;align=center;verticalAlign=middle;fontFamily=Helvetica;fontSize=12;fontColor=#232F3E;fontStyle=0;labelBackgroundColor=default;endArrow=classic;" parent="1" source="XTuCKv0g9gNxLLCQ7Ozg-4" target="XTuCKv0g9gNxLLCQ7Ozg-7" edge="1">
                    <mxGeometry relative="1" as="geometry">
                        <Array as="points">
                            <mxPoint x="330" y="136"/>
                        </Array>
                    </mxGeometry>
                </mxCell>
                <mxCell id="XTuCKv0g9gNxLLCQ7Ozg-12" style="edgeStyle=orthogonalEdgeStyle;shape=connector;rounded=1;html=1;strokeColor=default;strokeWidth=2;align=center;verticalAlign=middle;fontFamily=Helvetica;fontSize=12;fontColor=#232F3E;fontStyle=0;labelBackgroundColor=default;endArrow=classic;" parent="1" source="XTuCKv0g9gNxLLCQ7Ozg-4" target="XTuCKv0g9gNxLLCQ7Ozg-11" edge="1">
                    <mxGeometry relative="1" as="geometry"/>
                </mxCell>
                <mxCell id="XTuCKv0g9gNxLLCQ7Ozg-15" style="edgeStyle=orthogonalEdgeStyle;shape=connector;rounded=1;html=1;strokeColor=default;strokeWidth=2;align=center;verticalAlign=middle;fontFamily=Helvetica;fontSize=12;fontColor=#232F3E;fontStyle=0;labelBackgroundColor=default;endArrow=classic;" parent="1" source="XTuCKv0g9gNxLLCQ7Ozg-4" target="XTuCKv0g9gNxLLCQ7Ozg-14" edge="1">
                    <mxGeometry relative="1" as="geometry">
                        <Array as="points">
                            <mxPoint x="410" y="249"/>
                            <mxPoint x="410" y="119"/>
                        </Array>
                    </mxGeometry>
                </mxCell>
                <mxCell id="3" style="edgeStyle=orthogonalEdgeStyle;html=1;strokeWidth=2;curved=1;" edge="1" parent="1" source="XTuCKv0g9gNxLLCQ7Ozg-4" target="2">
                    <mxGeometry relative="1" as="geometry"/>
                </mxCell>
                <mxCell id="XTuCKv0g9gNxLLCQ7Ozg-4" value="&lt;font face=&quot;Itau Display&quot;&gt;Lambda&lt;/font&gt;" style="sketch=0;points=[[0,0,0],[0.25,0,0],[0.5,0,0],[0.75,0,0],[1,0,0],[0,1,0],[0.25,1,0],[0.5,1,0],[0.75,1,0],[1,1,0],[0,0.25,0],[0,0.5,0],[0,0.75,0],[1,0.25,0],[1,0.5,0],[1,0.75,0]];outlineConnect=0;fontColor=#232F3E;fillColor=#ED7100;strokeColor=#ffffff;dashed=0;verticalLabelPosition=bottom;verticalAlign=top;align=center;html=1;fontSize=12;fontStyle=0;aspect=fixed;shape=mxgraph.aws4.resourceIcon;resIcon=mxgraph.aws4.lambda;fontFamily=Helvetica;" parent="1" vertex="1">
                    <mxGeometry x="300" y="210" width="78" height="78" as="geometry"/>
                </mxCell>
                <mxCell id="XTuCKv0g9gNxLLCQ7Ozg-5" value="&lt;i&gt;cron&lt;/i&gt;&lt;div&gt;&lt;i&gt;expression&lt;/i&gt;&lt;/div&gt;" style="text;html=1;align=center;verticalAlign=middle;resizable=0;points=[];autosize=1;strokeColor=none;fillColor=none;fontFamily=Helvetica;fontSize=12;fontColor=#232F3E;fontStyle=0;" parent="1" vertex="1">
                    <mxGeometry x="218" y="200" width="80" height="40" as="geometry"/>
                </mxCell>
                <mxCell id="XTuCKv0g9gNxLLCQ7Ozg-6" value="&lt;i&gt;trigger&lt;/i&gt;" style="text;html=1;align=center;verticalAlign=middle;resizable=0;points=[];autosize=1;strokeColor=none;fillColor=none;fontFamily=Helvetica;fontSize=12;fontColor=#232F3E;fontStyle=0;" parent="1" vertex="1">
                    <mxGeometry x="227" y="252" width="60" height="30" as="geometry"/>
                </mxCell>
                <mxCell id="XTuCKv0g9gNxLLCQ7Ozg-10" style="edgeStyle=orthogonalEdgeStyle;shape=connector;rounded=1;html=1;strokeColor=default;strokeWidth=1;align=center;verticalAlign=middle;fontFamily=Helvetica;fontSize=12;fontColor=#232F3E;fontStyle=0;labelBackgroundColor=default;endArrow=classic;dashed=1;dashPattern=1 1;" parent="1" source="XTuCKv0g9gNxLLCQ7Ozg-7" target="XTuCKv0g9gNxLLCQ7Ozg-4" edge="1">
                    <mxGeometry relative="1" as="geometry">
                        <mxPoint x="360" y="200" as="targetPoint"/>
                        <Array as="points">
                            <mxPoint x="350" y="110"/>
                        </Array>
                    </mxGeometry>
                </mxCell>
                <mxCell id="XTuCKv0g9gNxLLCQ7Ozg-7" value="" style="image;aspect=fixed;perimeter=ellipsePerimeter;html=1;align=center;shadow=0;dashed=0;spacingTop=3;image=img/lib/active_directory/internet_globe.svg;sketch=0;strokeColor=#ffffff;verticalAlign=top;fontFamily=Helvetica;fontSize=12;fontColor=#232F3E;fontStyle=0;fillColor=#ED7100;" parent="1" vertex="1">
                    <mxGeometry x="154" y="100" width="50" height="50" as="geometry"/>
                </mxCell>
                <mxCell id="XTuCKv0g9gNxLLCQ7Ozg-9" value="&lt;i&gt;HTTP request&lt;/i&gt;" style="text;html=1;align=center;verticalAlign=middle;resizable=0;points=[];autosize=1;strokeColor=none;fillColor=none;fontFamily=Helvetica;fontSize=12;fontColor=#232F3E;fontStyle=0;" parent="1" vertex="1">
                    <mxGeometry x="218" y="140" width="100" height="30" as="geometry"/>
                </mxCell>
                <mxCell id="XTuCKv0g9gNxLLCQ7Ozg-11" value="&lt;font face=&quot;Itau Display&quot;&gt;S3 Bucket&lt;/font&gt;" style="sketch=0;points=[[0,0,0],[0.25,0,0],[0.5,0,0],[0.75,0,0],[1,0,0],[0,1,0],[0.25,1,0],[0.5,1,0],[0.75,1,0],[1,1,0],[0,0.25,0],[0,0.5,0],[0,0.75,0],[1,0.25,0],[1,0.5,0],[1,0.75,0]];outlineConnect=0;fontColor=#232F3E;fillColor=#7AA116;strokeColor=#ffffff;dashed=0;verticalLabelPosition=bottom;verticalAlign=top;align=center;html=1;fontSize=12;fontStyle=0;aspect=fixed;shape=mxgraph.aws4.resourceIcon;resIcon=mxgraph.aws4.s3;fontFamily=Helvetica;" parent="1" vertex="1">
                    <mxGeometry x="482" y="210" width="78" height="78" as="geometry"/>
                </mxCell>
                <mxCell id="XTuCKv0g9gNxLLCQ7Ozg-14" value="&lt;font face=&quot;Itau Display&quot;&gt;Glue Data Catalog&lt;/font&gt;" style="sketch=0;outlineConnect=0;fontColor=#232F3E;gradientColor=none;fillColor=#8C4FFF;strokeColor=none;dashed=0;verticalLabelPosition=bottom;verticalAlign=top;align=center;html=1;fontSize=12;fontStyle=0;aspect=fixed;pointerEvents=1;shape=mxgraph.aws4.glue_data_catalog;fontFamily=Helvetica;" parent="1" vertex="1">
                    <mxGeometry x="482" y="80" width="72" height="78" as="geometry"/>
                </mxCell>
                <mxCell id="XTuCKv0g9gNxLLCQ7Ozg-18" value="&lt;font face=&quot;Itau Display&quot;&gt;tbl_dim_&amp;lt;webportal&amp;gt;_active_tickers&lt;/font&gt;" style="rounded=1;whiteSpace=wrap;html=1;dashed=0;sketch=0;strokeColor=none;align=center;verticalAlign=top;fontFamily=Helvetica;fontSize=12;fontColor=#232F3E;fontStyle=0;fillColor=light-dark(#FFFFFF,#222222);arcSize=50;" parent="1" vertex="1">
                    <mxGeometry x="399.87" y="30" width="235.25" height="30" as="geometry"/>
                </mxCell>
                <mxCell id="2" value="&lt;font face=&quot;Itau Display&quot;&gt;SNS Topic&lt;/font&gt;" style="sketch=0;points=[[0,0,0],[0.25,0,0],[0.5,0,0],[0.75,0,0],[1,0,0],[0,1,0],[0.25,1,0],[0.5,1,0],[0.75,1,0],[1,1,0],[0,0.25,0],[0,0.5,0],[0,0.75,0],[1,0.25,0],[1,0.5,0],[1,0.75,0]];outlineConnect=0;fontColor=#232F3E;fillColor=#E7157B;strokeColor=#ffffff;dashed=0;verticalLabelPosition=bottom;verticalAlign=top;align=center;html=1;fontSize=12;fontStyle=0;aspect=fixed;shape=mxgraph.aws4.resourceIcon;resIcon=mxgraph.aws4.sns;" vertex="1" parent="1">
                    <mxGeometry x="300" y="410" width="78" height="78" as="geometry"/>
                </mxCell>
            </root>
        </mxGraphModel>
    </diagram>
    <diagram id="RWrHrZze-gxeabXmb29H" name="ideal">
        <mxGraphModel dx="812" dy="476" grid="1" gridSize="10" guides="1" tooltips="1" connect="1" arrows="1" fold="1" page="1" pageScale="1" pageWidth="850" pageHeight="1100" math="0" shadow="0">
            <root>
                <mxCell id="0"/>
                <mxCell id="1" parent="0"/>
                <mxCell id="4T9lWTJIlXZsUh2QOXiw-1" value="" style="points=[[0,0,0],[0.25,0,0],[0.5,0,0],[0.75,0,0],[1,0,0],[0,1,0],[0.25,1,0],[0.5,1,0],[0.75,1,0],[1,1,0],[0,0.25,0],[0,0.5,0],[0,0.75,0],[1,0.25,0],[1,0.5,0],[1,0.75,0]];outlineConnect=0;fontColor=#232F3E;fillColor=#E7157B;strokeColor=#ffffff;dashed=0;verticalLabelPosition=bottom;verticalAlign=top;align=center;html=1;fontSize=12;fontStyle=0;aspect=fixed;shape=mxgraph.aws4.resourceIcon;resIcon=mxgraph.aws4.eventbridge;rounded=0;" parent="1" vertex="1">
                    <mxGeometry x="200" y="210" width="78" height="78" as="geometry"/>
                </mxCell>
                <mxCell id="4T9lWTJIlXZsUh2QOXiw-2" style="edgeStyle=orthogonalEdgeStyle;html=1;strokeWidth=2;curved=1;rounded=0;" parent="1" source="4T9lWTJIlXZsUh2QOXiw-4" target="4T9lWTJIlXZsUh2QOXiw-5" edge="1">
                    <mxGeometry relative="1" as="geometry"/>
                </mxCell>
                <mxCell id="4T9lWTJIlXZsUh2QOXiw-3" style="edgeStyle=orthogonalEdgeStyle;shape=connector;curved=1;rounded=0;html=1;strokeColor=default;strokeWidth=2;align=center;verticalAlign=middle;fontFamily=Helvetica;fontSize=11;fontColor=default;labelBackgroundColor=default;endArrow=classic;" parent="1" source="4T9lWTJIlXZsUh2QOXiw-4" target="4T9lWTJIlXZsUh2QOXiw-13" edge="1">
                    <mxGeometry relative="1" as="geometry"/>
                </mxCell>
                <mxCell id="4T9lWTJIlXZsUh2QOXiw-4" value="" style="points=[[0,0,0],[0.25,0,0],[0.5,0,0],[0.75,0,0],[1,0,0],[0,1,0],[0.25,1,0],[0.5,1,0],[0.75,1,0],[1,1,0],[0,0.25,0],[0,0.5,0],[0,0.75,0],[1,0.25,0],[1,0.5,0],[1,0.75,0]];outlineConnect=0;fontColor=#232F3E;fillColor=#ED7100;strokeColor=#ffffff;dashed=0;verticalLabelPosition=bottom;verticalAlign=top;align=center;html=1;fontSize=12;fontStyle=0;aspect=fixed;shape=mxgraph.aws4.resourceIcon;resIcon=mxgraph.aws4.lambda;rounded=0;" parent="1" vertex="1">
                    <mxGeometry x="320" y="210" width="78" height="78" as="geometry"/>
                </mxCell>
                <mxCell id="4T9lWTJIlXZsUh2QOXiw-5" value="" style="points=[[0,0,0],[0.25,0,0],[0.5,0,0],[0.75,0,0],[1,0,0],[0,1,0],[0.25,1,0],[0.5,1,0],[0.75,1,0],[1,1,0],[0,0.25,0],[0,0.5,0],[0,0.75,0],[1,0.25,0],[1,0.5,0],[1,0.75,0]];outlineConnect=0;fontColor=#232F3E;fillColor=#C925D1;strokeColor=#ffffff;dashed=0;verticalLabelPosition=bottom;verticalAlign=top;align=center;html=1;fontSize=12;fontStyle=0;aspect=fixed;shape=mxgraph.aws4.resourceIcon;resIcon=mxgraph.aws4.dynamodb;rounded=0;" parent="1" vertex="1">
                    <mxGeometry x="320" y="80" width="78" height="78" as="geometry"/>
                </mxCell>
                <mxCell id="4T9lWTJIlXZsUh2QOXiw-6" style="edgeStyle=orthogonalEdgeStyle;html=1;strokeWidth=2;curved=1;rounded=0;" parent="1" source="4T9lWTJIlXZsUh2QOXiw-7" target="4T9lWTJIlXZsUh2QOXiw-8" edge="1">
                    <mxGeometry relative="1" as="geometry"/>
                </mxCell>
                <mxCell id="4T9lWTJIlXZsUh2QOXiw-7" value="" style="points=[[0,0,0],[0.25,0,0],[0.5,0,0],[0.75,0,0],[1,0,0],[0,1,0],[0.25,1,0],[0.5,1,0],[0.75,1,0],[1,1,0],[0,0.25,0],[0,0.5,0],[0,0.75,0],[1,0.25,0],[1,0.5,0],[1,0.75,0]];outlineConnect=0;fontColor=#232F3E;fillColor=#E7157B;strokeColor=#ffffff;dashed=0;verticalLabelPosition=bottom;verticalAlign=top;align=center;html=1;fontSize=12;fontStyle=0;aspect=fixed;shape=mxgraph.aws4.resourceIcon;resIcon=mxgraph.aws4.sqs;rounded=0;" parent="1" vertex="1">
                    <mxGeometry x="560" y="210" width="78" height="78" as="geometry"/>
                </mxCell>
                <mxCell id="4T9lWTJIlXZsUh2QOXiw-8" value="" style="points=[[0,0,0],[0.25,0,0],[0.5,0,0],[0.75,0,0],[1,0,0],[0,1,0],[0.25,1,0],[0.5,1,0],[0.75,1,0],[1,1,0],[0,0.25,0],[0,0.5,0],[0,0.75,0],[1,0.25,0],[1,0.5,0],[1,0.75,0]];outlineConnect=0;fontColor=#232F3E;fillColor=#ED7100;strokeColor=#ffffff;dashed=0;verticalLabelPosition=bottom;verticalAlign=top;align=center;html=1;fontSize=12;fontStyle=0;aspect=fixed;shape=mxgraph.aws4.resourceIcon;resIcon=mxgraph.aws4.lambda;rounded=0;" parent="1" vertex="1">
                    <mxGeometry x="680" y="210" width="78" height="78" as="geometry"/>
                </mxCell>
                <mxCell id="4T9lWTJIlXZsUh2QOXiw-9" value="" style="points=[[0,0,0],[0.25,0,0],[0.5,0,0],[0.75,0,0],[1,0,0],[0,1,0],[0.25,1,0],[0.5,1,0],[0.75,1,0],[1,1,0],[0,0.25,0],[0,0.5,0],[0,0.75,0],[1,0.25,0],[1,0.5,0],[1,0.75,0]];outlineConnect=0;fontColor=#232F3E;fillColor=#C925D1;strokeColor=#ffffff;dashed=0;verticalLabelPosition=bottom;verticalAlign=top;align=center;html=1;fontSize=12;fontStyle=0;aspect=fixed;shape=mxgraph.aws4.resourceIcon;resIcon=mxgraph.aws4.dynamodb;rounded=0;" parent="1" vertex="1">
                    <mxGeometry x="800" y="210" width="78" height="78" as="geometry"/>
                </mxCell>
                <mxCell id="4T9lWTJIlXZsUh2QOXiw-10" style="edgeStyle=orthogonalEdgeStyle;html=1;entryX=0;entryY=0.5;entryDx=0;entryDy=0;entryPerimeter=0;strokeWidth=2;curved=1;rounded=0;" parent="1" source="4T9lWTJIlXZsUh2QOXiw-1" target="4T9lWTJIlXZsUh2QOXiw-4" edge="1">
                    <mxGeometry relative="1" as="geometry"/>
                </mxCell>
                <mxCell id="4T9lWTJIlXZsUh2QOXiw-11" style="edgeStyle=orthogonalEdgeStyle;html=1;entryX=0;entryY=0.5;entryDx=0;entryDy=0;entryPerimeter=0;curved=1;strokeWidth=2;rounded=0;" parent="1" source="4T9lWTJIlXZsUh2QOXiw-8" target="4T9lWTJIlXZsUh2QOXiw-9" edge="1">
                    <mxGeometry relative="1" as="geometry"/>
                </mxCell>
                <mxCell id="4T9lWTJIlXZsUh2QOXiw-12" style="edgeStyle=orthogonalEdgeStyle;shape=connector;curved=1;rounded=0;html=1;strokeColor=default;strokeWidth=2;align=center;verticalAlign=middle;fontFamily=Helvetica;fontSize=11;fontColor=default;labelBackgroundColor=default;endArrow=classic;" parent="1" source="4T9lWTJIlXZsUh2QOXiw-13" target="4T9lWTJIlXZsUh2QOXiw-7" edge="1">
                    <mxGeometry relative="1" as="geometry"/>
                </mxCell>
                <mxCell id="4T9lWTJIlXZsUh2QOXiw-13" value="" style="sketch=0;points=[[0,0,0],[0.25,0,0],[0.5,0,0],[0.75,0,0],[1,0,0],[0,1,0],[0.25,1,0],[0.5,1,0],[0.75,1,0],[1,1,0],[0,0.25,0],[0,0.5,0],[0,0.75,0],[1,0.25,0],[1,0.5,0],[1,0.75,0]];outlineConnect=0;fontColor=#232F3E;fillColor=#E7157B;strokeColor=#ffffff;dashed=0;verticalLabelPosition=bottom;verticalAlign=top;align=center;html=1;fontSize=12;fontStyle=0;aspect=fixed;shape=mxgraph.aws4.resourceIcon;resIcon=mxgraph.aws4.sns;fontFamily=Helvetica;labelBackgroundColor=default;" parent="1" vertex="1">
                    <mxGeometry x="440" y="210" width="78" height="78" as="geometry"/>
                </mxCell>
            </root>
        </mxGraphModel>
    </diagram>
</mxfile>